<svg id="visual" viewBox="0 0 900 600" width="900" height="600" xmlns="http://www.w3.org/2000/svg" xmlns:xlink="http://www.w3.org/1999/xlink" version="1.1"><rect x="0" y="0" width="900" height="600" fill="#262626"></rect><path d="M0 178L15 190.8C30 203.7 60 229.3 90 237.7C120 246 150 237 180 240.2C210 243.3 240 258.7 270 264.8C300 271 330 268 360 269C390 270 420 275 450 278.3C480 281.7 510 283.3 540 284.5C570 285.7 600 286.3 630 276.3C660 266.3 690 245.7 720 226.5C750 207.3 780 189.7 810 188.8C840 188 870 204 885 212L900 220L900 601L885 601C870 601 840 601 810 601C780 601 750 601 720 601C690 601 660 601 630 601C600 601 570 601 540 601C510 601 480 601 450 601C420 601 390 601 360 601C330 601 300 601 270 601C240 601 210 601 180 601C150 601 120 601 90 601C60 601 30 601 15 601L0 601Z" fill="#db2777"></path><path d="M0 309L15 313C30 317 60 325 90 312.5C120 300 150 267 180 270.5C210 274 240 314 270 324.2C300 334.3 330 314.7 360 311.5C390 308.3 420 321.7 450 327.8C480 334 510 333 540 330.3C570 327.7 600 323.3 630 313.7C660 304 690 289 720 288C750 287 780 300 810 299.5C840 299 870 285 885 278L900 271L900 601L885 601C870 601 840 601 810 601C780 601 750 601 720 601C690 601 660 601 630 601C600 601 570 601 540 601C510 601 480 601 450 601C420 601 390 601 360 601C330 601 300 601 270 601C240 601 210 601 180 601C150 601 120 601 90 601C60 601 30 601 15 601L0 601Z" fill="#c51e64"></path><path d="M0 340L15 344.2C30 348.3 60 356.7 90 358.2C120 359.7 150 354.3 180 348.8C210 343.3 240 337.7 270 347.5C300 357.3 330 382.7 360 390.5C390 398.3 420 388.7 450 373C480 357.3 510 335.7 540 335C570 334.3 600 354.7 630 358.3C660 362 690 349 720 341.7C750 334.3 780 332.7 810 334.2C840 335.7 870 340.3 885 342.7L900 345L900 601L885 601C870 601 840 601 810 601C780 601 750 601 720 601C690 601 660 601 630 601C600 601 570 601 540 601C510 601 480 601 450 601C420 601 390 601 360 601C330 601 300 601 270 601C240 601 210 601 180 601C150 601 120 601 90 601C60 601 30 601 15 601L0 601Z" fill="#af1551"></path><path d="M0 382L15 382.5C30 383 60 384 90 395.2C120 406.3 150 427.7 180 439C210 450.3 240 451.7 270 452.5C300 453.3 330 453.7 360 447.2C390 440.7 420 427.3 450 412.5C480 397.7 510 381.3 540 386.5C570 391.7 600 418.3 630 422.7C660 427 690 409 720 403.7C750 398.3 780 405.7 810 403C840 400.3 870 387.7 885 381.3L900 375L900 601L885 601C870 601 840 601 810 601C780 601 750 601 720 601C690 601 660 601 630 601C600 601 570 601 540 601C510 601 480 601 450 601C420 601 390 601 360 601C330 601 300 601 270 601C240 601 210 601 180 601C150 601 120 601 90 601C60 601 30 601 15 601L0 601Z" fill="#990d41"></path><path d="M0 504L15 493.8C30 483.7 60 463.3 90 464.3C120 465.3 150 487.7 180 491.3C210 495 240 480 270 468.7C300 457.3 330 449.7 360 455.3C390 461 420 480 450 492.8C480 505.7 510 512.3 540 509C570 505.7 600 492.3 630 491.3C660 490.3 690 501.7 720 502.2C750 502.7 780 492.3 810 482.8C840 473.3 870 464.7 885 460.3L900 456L900 601L885 601C870 601 840 601 810 601C780 601 750 601 720 601C690 601 660 601 630 601C600 601 570 601 540 601C510 601 480 601 450 601C420 601 390 601 360 601C330 601 300 601 270 601C240 601 210 601 180 601C150 601 120 601 90 601C60 601 30 601 15 601L0 601Z" fill="#830532"></path><path d="M0 512L15 516.8C30 521.7 60 531.3 90 527.8C120 524.3 150 507.7 180 510.3C210 513 240 535 270 547.8C300 560.7 330 564.3 360 556.5C390 548.7 420 529.3 450 523.8C480 518.3 510 526.7 540 534.3C570 542 600 549 630 551C660 553 690 550 720 546.8C750 543.7 780 540.3 810 543.5C840 546.7 870 556.3 885 561.2L900 566L900 601L885 601C870 601 840 601 810 601C780 601 750 601 720 601C690 601 660 601 630 601C600 601 570 601 540 601C510 601 480 601 450 601C420 601 390 601 360 601C330 601 300 601 270 601C240 601 210 601 180 601C150 601 120 601 90 601C60 601 30 601 15 601L0 601Z" fill="#6e0024"></path></svg>